<svg width="500" height="518" viewBox="0 0 500 518" fill="none" xmlns="http://www.w3.org/2000/svg">
<path d="M212.624 349.36C212.08 354.928 211.776 359.376 210.256 363.76C208.532 368.7 205.665 373.163 201.888 376.784L201.776 376.896C200.997 377.716 200.476 378.747 200.279 379.86C200.082 380.974 200.217 382.121 200.668 383.158C201.118 384.196 201.864 385.078 202.812 385.694C203.76 386.31 204.869 386.634 206 386.624C214.797 386.379 223.519 384.925 231.92 382.304C239.544 380 246.781 376.57 253.392 372.128C272.479 376.082 292.352 373.05 309.392 363.584C326.992 353.808 340.912 336.384 344.304 316.032C346.028 306.043 345.376 295.787 342.399 286.097C339.421 276.407 334.204 267.554 327.168 260.256C313.241 246.012 294.284 237.798 274.368 237.376C271.92 237.36 270 238.512 270 240C270 241.488 271.824 242.816 274.112 243.008H274.752C292.679 244.493 309.351 252.803 321.328 266.224C327.034 272.719 331.159 280.446 333.38 288.802C335.601 297.157 335.857 305.913 334.128 314.384C330.8 331.2 318.8 345.6 303.712 353.6C288.339 361.819 270.48 364.097 253.536 360C252.714 359.805 251.86 359.79 251.031 359.956C250.203 360.122 249.42 360.464 248.736 360.96C239.686 367.262 229.363 371.501 218.496 373.376C219.569 371.374 220.464 369.28 221.168 367.12C223.424 360.496 223.456 353.2 223.952 348.048V347.728C224.033 346.924 223.931 346.112 223.654 345.353C223.377 344.594 222.932 343.907 222.352 343.344C213.974 335.483 208.158 325.279 205.664 314.064C203.38 302.74 204.718 290.985 209.488 280.464C211.964 275.185 215.151 270.27 218.96 265.856C222.915 261.487 227.385 257.613 232.272 254.32C242.357 247.812 253.905 243.919 265.872 242.992C268.16 242.8 270 241.488 270 240C270 238.512 268.064 237.376 265.584 237.44H264.88C239.28 238.192 213.104 252.56 201.2 276.88C195.249 289.065 193.321 302.825 195.696 316.176C198.072 328.621 203.944 340.131 212.624 349.36Z" fill="#D3D4DE" opacity="0.28"/>
<path d="M246.16 317.744C245.872 317.664 245.04 318.608 244.256 319.888C243.472 321.168 243.008 322.336 243.2 322.56C246.553 326.16 250.512 329.144 254.896 331.376C259.596 333.666 264.756 334.856 269.984 334.856C275.212 334.856 280.372 333.666 285.072 331.376C289.441 329.123 293.383 326.123 296.72 322.512C296.928 322.32 296.48 321.168 295.696 319.904C294.912 318.64 294.096 317.712 293.824 317.824C276.624 324.8 263.312 324.8 246.16 317.744Z" fill="#D3D4DE" opacity="0.28"/>
<path d="M255.728 295.248C256.661 295.467 257.619 295.553 258.576 295.504C259.535 295.621 260.508 295.477 261.392 295.088C261.857 293.098 261.854 291.028 261.382 289.04C260.91 287.051 259.982 285.2 258.672 283.632C257.267 281.929 255.502 280.56 253.504 279.622C251.506 278.684 249.324 278.202 247.117 278.209C244.91 278.217 242.732 278.715 240.74 279.666C238.748 280.618 236.993 282 235.6 283.712C234.311 285.288 233.404 287.141 232.951 289.126C232.499 291.111 232.513 293.173 232.992 295.152C232.992 295.392 234.24 295.568 235.728 295.568C236.658 295.626 237.592 295.539 238.496 295.312C239.313 293.738 240.546 292.419 242.061 291.498C243.576 290.578 245.315 290.091 247.088 290.091C248.861 290.091 250.6 290.578 252.115 291.498C253.63 292.419 254.863 293.738 255.68 295.312L255.728 295.248Z" fill="#D3D4DE" opacity="0.28"/>
<path d="M281.424 295.504C282.354 295.56 283.288 295.474 284.192 295.248C285.011 293.675 286.246 292.357 287.762 291.437C289.279 290.517 291.018 290.03 292.792 290.03C294.566 290.03 296.305 290.517 297.822 291.437C299.338 292.357 300.573 293.675 301.392 295.248C302.324 295.469 303.283 295.556 304.24 295.504C305.199 295.621 306.172 295.477 307.056 295.088C307.514 293.098 307.507 291.029 307.035 289.042C306.563 287.055 305.64 285.204 304.336 283.632C302.931 281.929 301.166 280.56 299.168 279.622C297.17 278.684 294.988 278.202 292.781 278.209C290.574 278.217 288.396 278.715 286.404 279.666C284.412 280.618 282.657 282 281.264 283.712C279.972 285.286 279.062 287.139 278.607 289.124C278.152 291.109 278.163 293.172 278.64 295.152C278.72 295.328 279.936 295.504 281.424 295.504Z" fill="#D3D4DE" opacity="0.28"/>
<g clip-path="url(#clip0)">
<path d="M250.934 437.57L246.132 437.548C245.227 437.563 244.718 437.548 243.502 437.563C242.349 437.64 241.212 437.873 240.122 438.256C237.945 439.037 236.036 440.425 234.621 442.255C233.206 444.085 232.344 446.282 232.135 448.585C231.926 450.889 232.38 453.205 233.443 455.26C234.506 457.314 236.134 459.022 238.135 460.183C240.091 461.302 242.317 461.86 244.57 461.795L249.569 461.717C256.237 461.597 262.898 461.427 269.46 461.229C282.662 460.756 295.644 460.091 308.209 459.49C309.079 459.455 309.242 458.91 308.584 458.252C307.835 457.535 306.871 457.083 305.841 456.966L305.586 456.951L291.331 456.315C292.186 454.383 292.561 452.273 292.423 450.165C292.285 448.057 291.639 446.013 290.539 444.209C290.539 444.209 290.369 444.181 290.277 444.16C295.637 444.018 300.997 443.919 306.35 443.729C306.576 447.533 306.915 451.365 307.297 455.509C307.467 456.532 307.929 457.485 308.627 458.252C309.291 458.917 309.864 458.755 309.956 457.842L309.977 457.595C310.437 452.398 310.847 446.826 311.045 441.282C311.061 440.664 310.834 440.065 310.412 439.613C309.99 439.162 309.407 438.895 308.789 438.871L308.627 438.864C295.79 438.34 282.97 437.98 270.167 437.782L250.934 437.57ZM287.081 444.245C286.01 446.009 285.372 448.002 285.218 450.061C285.065 452.119 285.4 454.185 286.197 456.089L267.53 455.226C261.326 455 255.155 454.83 249.017 454.717L244.407 454.646C243.46 454.653 242.531 454.391 241.727 453.89C240.956 453.396 240.337 452.698 239.941 451.872C239.545 451.046 239.387 450.126 239.486 449.216C239.583 448.314 239.932 447.459 240.494 446.747C241.056 446.035 241.807 445.496 242.661 445.192C243.087 445.043 243.532 444.955 243.983 444.931L246.203 444.916L251.004 444.895L270.231 444.704C275.845 444.605 281.46 444.393 287.081 444.245Z" fill="#D3D4DE" opacity="0.28"/>
<path d="M332.35 473.83C331.382 471.05 329.799 468.524 327.717 466.442C325.635 464.361 323.11 462.777 320.329 461.809C319.815 462.111 319.354 462.496 318.964 462.948C318.499 463.33 318.1 463.786 317.784 464.298C318.76 467.076 320.352 469.597 322.441 471.671C324.53 473.746 327.062 475.32 329.847 476.277C330.351 475.99 330.801 475.617 331.176 475.174C331.619 474.799 331.992 474.349 332.279 473.844L332.35 473.83Z" fill="#D3D4DE" opacity="0.28"/>
<path d="M319.056 436.467C319.446 436.918 319.907 437.303 320.421 437.605C323.189 436.646 325.7 435.066 327.764 432.988C329.828 430.909 331.389 428.387 332.329 425.612C332.042 425.108 331.669 424.658 331.226 424.283C330.851 423.84 330.401 423.467 329.896 423.18C327.124 424.127 324.606 425.696 322.534 427.768C320.463 429.839 318.893 432.358 317.946 435.13C318.25 435.627 318.623 436.077 319.056 436.467Z" fill="#D3D4DE" opacity="0.28"/>
<path d="M340.729 451.45C340.899 450.894 340.959 450.311 340.906 449.732C340.959 449.153 340.899 448.57 340.729 448.014C337.739 446.711 334.514 446.034 331.253 446.025C327.991 446.015 324.762 446.673 321.765 447.957C321.605 448.527 321.543 449.12 321.581 449.711C321.533 450.306 321.596 450.905 321.765 451.478C324.76 452.769 327.988 453.433 331.25 453.428C334.512 453.423 337.738 452.75 340.729 451.45Z" fill="#D3D4DE" opacity="0.28"/>
<path d="M304.066 431.63C304.627 431.782 305.211 431.834 305.791 431.785C306.371 431.838 306.955 431.785 307.516 431.63C308.816 429.011 309.495 426.129 309.503 423.206C309.51 420.283 308.845 417.397 307.559 414.773C306.978 414.622 306.376 414.565 305.777 414.603C305.183 414.562 304.587 414.614 304.009 414.758C302.725 417.387 302.063 420.275 302.072 423.201C302.082 426.126 302.764 429.01 304.066 431.63Z" fill="#D3D4DE" opacity="0.28"/>
<path d="M307.566 465.705C306.986 465.534 306.38 465.47 305.777 465.515C305.18 465.468 304.579 465.528 304.002 465.691C302.717 468.69 302.06 471.921 302.071 475.184C302.082 478.447 302.761 481.673 304.066 484.663C304.101 484.769 304.858 484.847 305.791 484.847C306.37 484.9 306.953 484.84 307.509 484.67C308.812 481.68 309.489 478.455 309.498 475.194C309.508 471.932 308.85 468.703 307.566 465.705Z" fill="#D3D4DE" opacity="0.28"/>
</g>
<g clip-path="url(#clip1)">
<path d="M148.532 400.77L148.895 398.388C149.016 397.597 149.131 396.845 149.297 395.758C149.561 392.671 148.876 389.578 147.334 386.891C145.792 384.204 143.466 382.052 140.668 380.723C138.906 379.932 137.033 379.417 135.114 379.197L132.07 378.732C132.233 375.87 132.071 372.998 131.586 370.171C131.072 369.885 130.498 369.721 129.91 369.693C129.343 369.543 128.749 369.529 128.176 369.651C126.877 372.165 125.861 374.815 125.148 377.554L111.325 375.332L108.37 374.881C108.505 372.093 108.335 369.299 107.861 366.548C107.347 366.262 106.773 366.098 106.185 366.07C105.618 365.92 105.024 365.906 104.451 366.028C103.178 368.497 102.183 371.1 101.485 373.789L84.6803 371.223C84.8024 368.445 84.6201 365.663 84.1365 362.925C83.6218 362.639 83.0479 362.475 82.4596 362.447C81.893 362.297 81.2992 362.283 80.7261 362.405C79.4628 364.856 78.4746 367.44 77.7794 370.108L73.0344 369.384C69.87 368.958 66.6511 369.508 63.808 370.962C60.9649 372.415 58.6332 374.701 57.1246 377.515C56.1738 379.32 55.5619 381.284 55.3193 383.309L52.4903 402.431L49.732 421.554L48.3711 431.128L47.7028 435.902L47.3269 438.363C47.2142 439.368 47.195 440.381 47.2695 441.389C47.4413 443.42 48.0205 445.395 48.9724 447.196C49.9243 448.998 51.2295 450.59 52.8099 451.876C54.3817 453.152 56.1954 454.096 58.1419 454.653C59.8452 455.047 61.5711 455.338 63.3098 455.523L82.4597 458.103L120.787 463.086C122.368 463.327 123.745 462.728 123.885 461.809C124.025 460.89 122.93 459.984 121.343 459.711L120.888 459.642L82.8318 452.95L63.8043 449.701L61.4219 449.337C60.7957 449.237 60.1796 449.082 59.5808 448.874C58.4456 448.455 57.4051 447.815 56.52 446.99C55.6443 446.181 54.9414 445.203 54.4538 444.115C53.9663 443.027 53.7041 441.851 53.6832 440.659C53.6837 440.053 53.7321 439.448 53.8279 438.85L54.1932 436.458L54.9817 431.692L56.5387 422.158L59.6377 403.057L60.4891 397.482C86.9245 403.871 113.858 407.984 140.996 409.776L140.985 409.845L138.395 428.993L135.866 448.141C135.455 451.558 135.237 454.114 133.477 456.233C132.651 457.314 131.616 458.219 130.434 458.894C129.252 459.568 127.946 459.998 126.595 460.159C125.263 460.34 124.063 460.905 123.88 461.839C123.698 462.772 124.999 463.79 126.896 463.685L127.409 463.642C129.27 463.45 131.073 462.883 132.708 461.975C134.344 461.067 135.779 459.836 136.925 458.358C138.088 456.863 138.935 455.148 139.415 453.316C139.875 451.363 140.025 450.051 140.338 448.399L143.64 429.359L146.894 410.302L148.532 400.77ZM61.1272 393.634L62.6051 383.956C62.7513 382.836 63.1228 381.757 63.6973 380.784C64.2717 379.811 65.0371 378.965 65.9474 378.295C66.8578 377.626 67.8942 377.148 68.9941 376.89C70.0941 376.633 71.2349 376.6 72.3478 376.795L76.5688 377.439C76.4336 380.202 76.5975 382.971 77.0578 385.698C77.5901 385.977 78.1759 386.139 78.7758 386.173C79.3657 386.321 79.9809 386.339 80.5785 386.225C81.832 383.768 82.8108 381.18 83.497 378.507L100.31 381.024C100.169 383.81 100.333 386.603 100.798 389.353C101.33 389.632 101.916 389.794 102.516 389.828C103.103 389.964 103.713 389.971 104.303 389.848C105.57 387.367 106.556 384.752 107.244 382.053L110.575 382.562L124.035 384.516C123.877 387.348 124.037 390.188 124.512 392.985C125.044 393.264 125.63 393.425 126.23 393.46C126.821 393.594 127.435 393.598 128.028 393.471C129.324 390.94 130.326 388.269 131.014 385.511L134.484 386.041C135.148 386.103 135.809 386.204 136.461 386.343C137.018 386.493 137.56 386.698 138.077 386.954C139.665 387.742 140.977 388.993 141.838 390.543C142.7 392.092 143.071 393.867 142.903 395.631L142.272 400.29L141.499 405.948C115.108 399.565 88.2194 395.446 61.1272 393.634Z" fill="#D3D4DE" opacity="0.28"/>
<path d="M110.409 419.49C103.563 422.659 97.1205 426.637 91.2203 431.339C89.2038 429.109 87.0566 426.94 84.791 424.884C84.6509 424.741 83.9435 425.068 83.1869 425.651C82.4303 426.233 81.923 426.773 81.9764 426.953C83.733 430.8 85.7463 434.524 88.0027 438.101C88.4589 438.822 89.1828 439.332 90.0152 439.52C90.8477 439.708 91.7207 439.558 92.4424 439.102L92.8663 438.843C100.133 434.265 106.737 428.711 112.493 422.337C112.619 422.174 112.284 421.455 111.731 420.703C111.178 419.951 110.602 419.418 110.409 419.49Z" fill="#D3D4DE" opacity="0.28"/>
</g>
<path d="M477.094 70.5959C474.063 68.9344 470.595 68.2425 467.158 68.6135C465.506 68.7905 463.842 69.0147 462.19 69.2271L462.356 57.5097C462.363 56.972 462.265 56.438 462.067 55.9382C461.868 55.4384 461.573 54.9827 461.198 54.597C460.823 54.2112 460.376 53.9031 459.883 53.6902C459.389 53.4773 458.858 53.3638 458.32 53.3561H458.202C431.455 53.0493 404.709 53.0493 377.962 53.3561H377.844C377.308 53.3638 376.78 53.4771 376.288 53.6895C375.796 53.902 375.351 54.2094 374.978 54.5942C374.606 54.979 374.312 55.4335 374.116 55.9318C373.919 56.4301 373.823 56.9623 373.832 57.4979L374.151 79.1509C374.082 82.9598 374.358 86.767 374.977 90.5261C375.653 94.3975 376.889 98.1499 378.646 101.665C382.098 108.693 387.402 114.645 393.986 118.881C400.475 123.028 407.977 125.314 415.675 125.489C415.963 125.532 416.257 125.517 416.539 125.443C416.822 125.369 417.086 125.239 417.316 125.06C417.547 124.882 417.739 124.658 417.88 124.404C418.022 124.149 418.111 123.868 418.141 123.578C418.086 123.002 417.821 122.466 417.397 122.072C416.973 121.678 416.419 121.454 415.84 121.442H415.486C408.789 120.746 402.4 118.272 396.98 114.276C391.561 110.28 387.309 104.907 384.664 98.7153C383.36 95.7062 382.486 92.5283 382.068 89.2753C381.685 85.8911 381.586 82.4807 381.773 79.0801L382.033 61.6751C406.058 61.9347 430.083 61.9347 454.107 61.6751L454.367 79.1509C454.552 82.5561 454.446 85.9709 454.048 89.3579C453.617 92.6147 452.723 95.7934 451.393 98.7979C448.713 104.999 444.412 110.363 438.943 114.329C433.474 118.295 427.039 120.715 420.312 121.336C419.735 121.367 419.188 121.608 418.777 122.015C418.366 122.422 418.119 122.965 418.082 123.542C418.107 123.839 418.191 124.128 418.331 124.391C418.47 124.655 418.661 124.887 418.893 125.075C419.124 125.262 419.391 125.401 419.678 125.482C419.964 125.564 420.264 125.586 420.56 125.548H420.949C428.492 125.266 435.823 122.976 442.185 118.915C448.547 114.853 453.709 109.167 457.14 102.444C458.945 102.668 460.751 102.904 462.544 103.093L466.722 103.482C468.389 103.656 470.072 103.605 471.725 103.329C475.297 102.676 478.58 100.935 481.124 98.3441C483.668 95.7535 485.35 92.4399 485.939 88.8568C486.528 85.2737 485.996 81.5962 484.414 78.3274C482.833 75.0586 480.28 72.3582 477.106 70.5959H477.094ZM477.271 87.4817C476.925 89.422 476.058 91.2318 474.763 92.7178C473.468 94.2038 471.794 95.3101 469.919 95.9187C468.267 96.5323 465.199 96.5441 462.438 96.8981C461.412 97.0043 460.385 97.1459 459.358 97.2639C460.202 95.04 460.83 92.7402 461.235 90.3963C461.836 86.6553 462.109 82.8687 462.049 79.0801L462.12 74.1005C463.831 74.3247 465.542 74.5489 467.264 74.7259C469.413 74.9462 471.457 75.7637 473.164 77.0859C474.729 78.2817 475.938 79.8815 476.662 81.7132C477.386 83.5449 477.596 85.5393 477.271 87.4817Z" fill="#D3D4DE" opacity="0.28"/>
<path d="M398.14 21.3309C397.807 20.7295 397.367 20.1938 396.842 19.7497C396.398 19.2248 395.862 18.785 395.261 18.4517C393.148 19.1712 391.309 20.5274 389.998 22.3339C388.556 24.3334 387.78 26.7362 387.78 29.2015C387.78 31.6667 388.556 34.0695 389.998 36.0691C391.315 37.8695 393.152 39.2241 395.261 39.9513C395.875 39.6068 396.422 39.1552 396.877 38.6179C397.388 38.1604 397.816 37.6173 398.14 37.0131C397.446 35.6363 396.972 34.159 396.736 32.6353C396.56 31.5031 396.474 30.3589 396.476 29.2133C396.46 28.0602 396.539 26.9077 396.712 25.7677C396.951 24.2227 397.433 22.7253 398.14 21.3309Z" fill="#D3D4DE" opacity="0.28"/>
<path d="M421.74 21.3309C421.407 20.7295 420.967 20.1938 420.442 19.7497C419.998 19.2248 419.462 18.785 418.861 18.4517C416.748 19.1712 414.909 20.5274 413.598 22.3339C412.156 24.3334 411.38 26.7362 411.38 29.2015C411.38 31.6667 412.156 34.0695 413.598 36.0691C414.915 37.8695 416.752 39.2241 418.861 39.9513C419.475 39.6068 420.022 39.1552 420.477 38.6179C420.988 38.1604 421.416 37.6173 421.74 37.0131C421.046 35.6363 420.572 34.159 420.336 32.6353C420.16 31.5031 420.074 30.3589 420.076 29.2133C420.06 28.0602 420.139 26.9077 420.312 25.7677C420.551 24.2227 421.033 22.7253 421.74 21.3309Z" fill="#D3D4DE" opacity="0.28"/>
<path d="M445.34 21.3309C445.007 20.7295 444.567 20.1938 444.042 19.7497C443.598 19.2248 443.062 18.785 442.461 18.4517C440.348 19.1712 438.509 20.5274 437.198 22.3339C435.756 24.3334 434.98 26.7362 434.98 29.2015C434.98 31.6667 435.756 34.0695 437.198 36.0691C438.515 37.8695 440.352 39.2241 442.461 39.9513C443.075 39.6068 443.622 39.1552 444.077 38.6179C444.588 38.1604 445.016 37.6173 445.34 37.0131C444.646 35.6363 444.172 34.159 443.936 32.6353C443.76 31.5031 443.674 30.3589 443.676 29.2133C443.66 28.0602 443.739 26.9077 443.912 25.7677C444.151 24.2227 444.633 22.7253 445.34 21.3309Z" fill="#D3D4DE" opacity="0.28"/>
<g clip-path="url(#clip2)">
<path d="M342.273 198C344.073 198.655 346.2 199.227 348.491 199.145C350.7 199.064 352.991 198.491 354.955 197.345C356.918 196.282 358.718 194.645 359.945 192.845C361.255 190.964 361.909 188.836 362.318 187.036C362.318 186.955 361.827 186.545 361.173 186.136C360.518 185.727 359.945 185.564 359.864 185.645C357.082 188.673 354.791 190.555 352.009 192.027C349.227 193.582 346.445 194.4 342.355 195.055C342.273 195.136 342.109 195.709 342.027 196.527C342.109 197.264 342.109 197.918 342.273 198Z" fill="#D3D4DE" opacity="0.28"/>
<path d="M343.336 183.191C343.009 181.473 341.7 179.918 339.9 179.182C338.1 178.364 335.891 178.527 334.173 179.509C332.373 180.491 331.145 182.291 330.818 184.173C330.491 186.054 331.145 188.018 332.373 189.164C332.455 189.245 333.027 189 333.682 188.673C334.336 188.345 334.909 187.936 334.909 187.936C335.155 185.809 336.382 185.236 337.118 184.827C337.855 184.5 339 183.764 340.882 184.745C340.964 184.745 341.536 184.5 342.191 184.173C342.845 183.682 343.418 183.273 343.336 183.191Z" fill="#D3D4DE" opacity="0.28"/>
<path d="M350.7 179.427C351.355 179.1 351.927 178.691 351.927 178.691C352.173 176.564 353.4 175.991 354.136 175.582C354.873 175.254 356.018 174.518 357.9 175.5C357.982 175.5 358.555 175.254 359.209 174.927C359.864 174.6 360.436 174.191 360.355 174.109C360.027 172.473 358.718 170.836 356.918 170.1C355.118 169.282 352.909 169.445 351.191 170.427C349.391 171.409 348.164 173.209 347.836 175.091C347.509 176.973 348.164 178.936 349.391 180.082C349.391 180 350.045 179.754 350.7 179.427Z" fill="#D3D4DE" opacity="0.28"/>
<path d="M324.518 202.827V202.582C324.6 200.7 324.027 198.818 322.964 197.345C321.9 195.791 320.1 194.645 318.545 194.154L314.291 192.518C313.964 192.436 313.473 192.191 313.309 192.109C313.227 192.027 313.145 192.027 313.145 191.945C313.064 191.864 313.064 191.618 313.064 191.536C313.064 191.454 313.145 191.454 313.145 191.373C313.227 191.373 313.145 191.373 313.555 191.045L315.355 189.573L317.155 188.1L318.055 187.364C318.464 187.036 318.791 186.709 319.118 186.3C321.9 183.191 322.145 178.036 319.691 174.764L317.155 170.918L316.582 170.1L318.545 169.936L320.836 169.773C321.655 169.691 322.227 169.691 323.455 169.527C327.791 168.791 331.309 164.782 331.473 160.364L331.555 155.7V154.718H331.636L332.618 155.291C334.009 156.109 335.073 156.764 336.709 157.745C340.636 159.873 345.791 158.891 348.655 155.536L349.145 154.882L349.473 154.391L350.127 153.491L351.518 151.609L352.173 150.709L352.5 150.218C352.5 150.218 352.5 150.136 352.582 150.136C352.745 150.464 352.991 150.873 353.073 151.282L354.955 155.454C356.591 159.382 361.091 161.754 365.182 160.936C365.673 160.854 366.245 160.691 366.573 160.609L367.636 160.364L369.845 159.627L372.055 158.891C372.545 158.727 372.382 158.809 372.627 158.809C372.791 158.891 372.873 158.973 372.955 159.136C372.955 159.218 372.955 159.3 372.955 159.382L372.709 160.527L371.809 165.027C370.827 168.627 372.627 172.882 375.982 174.518C376.8 174.927 377.7 174.6 377.945 173.864C378.191 173.127 377.945 172.391 377.455 172.064L377.291 171.982C375.245 170.509 374.509 167.973 375.409 165.6L376.636 161.182C376.718 160.773 376.8 160.609 376.964 159.954C377.127 159.3 377.045 158.564 376.882 157.909C376.555 156.6 375.573 155.454 374.345 154.882C373.691 154.554 373.036 154.391 372.3 154.473C371.564 154.473 370.827 154.718 370.582 154.8L368.373 155.373L366.164 155.945L365.018 156.273C364.773 156.354 364.527 156.354 364.282 156.354C362.236 156.518 360.355 155.291 359.7 153.327L358.064 149.073L357.655 148.009C357.655 147.927 357.409 147.518 357.245 147.191C357 146.864 356.836 146.536 356.509 146.209C355.445 144.982 353.809 144.409 352.255 144.491C350.7 144.491 349.064 145.473 348.245 146.618L346.855 148.418L345.464 150.218C344.973 150.791 344.482 151.527 344.236 151.773C343.009 153.082 340.882 153.327 339.409 152.427L335.564 150.054L334.582 149.482L334.091 149.236C333.764 149.073 333.436 148.827 333.027 148.745C331.473 148.173 329.591 148.418 328.282 149.236C326.891 150.054 325.827 151.609 325.582 153.245C325.5 154.227 325.5 154.309 325.5 154.8V155.945L325.418 160.364C325.336 162.082 323.945 163.636 322.227 163.964L317.891 164.373L315.436 164.618C313.882 164.782 312.409 165.845 311.591 167.236C310.773 168.545 310.609 170.264 311.1 171.818C311.918 173.618 312.245 173.618 312.736 174.354L315.436 178.036C316.582 179.509 316.582 181.882 315.273 183.436C315.109 183.682 314.945 183.764 314.7 184.009L313.882 184.745L312.164 186.3L310.445 187.854C309.627 188.427 308.645 189.982 308.645 191.373C308.564 192.764 309.136 194.154 310.2 195.054C310.691 195.545 311.345 195.873 311.918 196.036L312.982 196.364L317.4 197.673C319.773 198.245 321.491 200.373 321.573 202.745C321.573 203.318 322.064 203.973 322.8 204.136C323.618 204.3 324.355 203.809 324.518 202.827Z" fill="#D3D4DE" opacity="0.28"/>
<path d="M385.718 175.091C385.309 174.764 384.818 174.518 384.327 174.355L383.345 174.109L379.582 172.964C378.927 172.8 378.273 173.209 378.027 173.945C377.782 174.682 378.027 175.418 378.682 175.664L378.845 175.745L382.527 177.218C382.773 177.3 383.264 177.464 383.345 177.545C383.427 177.627 383.509 177.709 383.591 177.791C383.755 177.955 383.755 178.2 383.755 178.364C383.755 178.609 383.673 178.691 383.509 178.855L382.118 179.918L379.009 182.373C377.864 183.191 376.555 184.745 375.9 186.3C375.245 187.936 375 189.736 375.327 191.536C375.573 193.255 376.718 195.136 377.373 195.955L379.582 199.227L379.991 199.8C379.909 199.8 379.745 199.8 379.664 199.8L378.682 199.882L374.755 200.127C374.182 200.127 373.118 200.209 372.3 200.455C371.4 200.7 370.5 201.109 369.682 201.518C368.045 202.5 366.736 203.973 365.918 205.609C365.509 206.427 365.182 207.409 365.1 208.309C365.018 208.8 365.018 209.291 364.936 209.7V210.682L364.855 214.609V215.018L364.364 214.691L361.009 212.645L360.109 212.073C359.7 211.827 359.291 211.664 358.8 211.418C357.9 211.091 357 210.845 356.018 210.764C354.136 210.6 352.255 211.009 350.536 211.827C349.718 212.236 348.982 212.809 348.245 213.464C347.918 213.791 347.591 214.118 347.345 214.527L346.691 215.345L344.4 218.536C344.155 218.864 343.827 219.273 343.745 219.518L343.336 218.618L341.7 215.018L341.291 214.364C341.127 213.955 340.882 213.545 340.636 213.218C340.145 212.482 339.573 211.745 338.918 211.173C337.609 210.027 335.891 209.209 334.173 208.964C333.273 208.8 332.455 208.8 331.555 208.964C330.736 209.045 329.836 209.373 329.264 209.618L325.5 210.927L323.945 211.418C323.782 211.5 323.618 211.418 323.373 211.336C323.127 211.255 323.045 211.009 322.964 210.845C322.964 210.764 322.964 210.6 322.964 210.518L323.127 209.536L323.864 205.609C324.027 204.955 323.536 204.3 322.8 204.136C322.064 203.973 321.327 204.3 321.164 204.955L321.082 205.118L320.018 208.882C319.936 209.209 319.855 209.373 319.773 209.945C319.691 210.436 319.691 211.009 319.773 211.582C320.018 212.645 320.591 213.627 321.491 214.282C322.391 214.936 323.618 215.264 324.682 215.1C325.336 215.018 325.5 214.936 325.909 214.855L326.891 214.609L330.736 213.627C332.782 212.973 334.5 213.545 335.809 214.855C336.464 215.591 336.627 216.082 337.2 217.473L338.591 221.155L338.918 222.055C339.164 222.627 339.491 223.2 339.982 223.691C340.964 224.673 342.273 225.245 343.582 225.327C344.891 225.409 346.282 224.918 347.345 224.018C347.591 223.773 347.836 223.527 348 223.282L348.327 222.873L348.9 222.055L351.355 218.945C351.845 218.291 352.009 218.127 352.336 217.882C352.664 217.636 352.991 217.473 353.318 217.309C353.973 216.982 354.791 216.9 355.527 216.982C355.936 217.064 356.264 217.145 356.591 217.309C356.755 217.391 356.918 217.473 357.082 217.555L357.9 218.045L361.255 220.091L362.073 220.582C362.4 220.827 363.218 221.236 363.873 221.318C365.264 221.645 366.818 221.4 368.045 220.664C369.273 219.927 370.255 218.7 370.582 217.309C370.909 215.591 370.745 215.345 370.827 214.609L370.909 210.682V209.782C370.909 209.618 370.909 209.373 370.991 209.209C371.073 208.882 371.155 208.473 371.318 208.145C371.645 207.491 372.136 206.918 372.791 206.509C373.118 206.264 373.445 206.182 373.855 206.1C374.018 206.018 374.264 206.018 374.427 206.018L375.327 205.936L379.255 205.527C379.991 205.364 380.318 205.527 381.873 205.118C383.182 204.627 384.245 203.645 384.818 202.418C385.391 201.191 385.555 199.8 385.145 198.491C384.982 197.918 384.491 197.1 384.327 196.855L383.755 196.036L381.382 192.845L380.809 192.027C380.727 191.864 380.564 191.7 380.482 191.455C380.236 191.127 380.073 190.718 379.991 190.309C379.745 189.491 379.827 188.591 380.155 187.773C380.318 187.364 380.482 186.955 380.809 186.627C381.055 186.3 381.382 185.973 381.873 185.482L384.736 182.782L385.473 182.127L385.882 181.8C386.045 181.636 386.291 181.391 386.455 181.145C387.191 180.245 387.436 179.018 387.273 177.955C387.109 176.809 386.536 175.745 385.718 175.091Z" fill="#D3D4DE" opacity="0.28"/>
</g>
<g clip-path="url(#clip3)">
<path d="M165.599 162.971C165.408 163.449 165.344 163.968 165.414 164.477C165.484 164.987 165.686 165.47 165.999 165.878C166.124 166.063 166.264 166.238 166.418 166.4C166.961 166.969 167.62 167.416 168.349 167.711C169.079 168.006 169.863 168.144 170.649 168.113C171.44 168.112 172.22 167.935 172.934 167.594C173.753 167.174 173.867 167.061 174.369 166.779L179.315 163.817L189.228 157.905L207.982 146.499L237.008 146.655L244.493 146.649L248.268 146.663C249.537 146.682 250.792 146.393 251.925 145.82C253.158 145.178 254.184 144.2 254.884 142.999C255.595 141.801 255.958 140.427 255.931 139.034C255.904 137.64 255.488 136.282 254.731 135.111L254.12 134.298L253.782 133.9L253.162 133.203L251.932 131.787L247.009 126.161C233.864 111.169 220.618 96.2647 207.27 81.4497L197.233 70.3509L195.93 68.9223L195.304 68.2353L194.289 67.245C192.782 65.9111 190.94 65.0122 188.961 64.6444C187.025 64.291 185.03 64.4479 183.174 65.0999C181.317 65.7518 179.662 66.8762 178.372 68.3623C177.09 69.8642 176.242 71.6882 175.922 73.637L175.421 77.5396L174.443 84.9532L172.571 99.7987C170.017 119.534 167.634 139.327 165.423 159.175C165.258 159.781 165.334 160.426 165.635 160.977C165.935 161.527 166.437 161.94 167.035 162.129C167.659 162.121 168.255 161.873 168.702 161.438C169.149 161.003 169.413 160.414 169.439 159.79L169.52 159.39C173.057 139.762 176.443 120.147 179.679 100.545L182.099 85.8061L183.321 78.3893L183.616 76.5428C183.683 76.0234 183.776 75.5078 183.896 74.998C184.013 74.48 184.27 74.0038 184.638 73.6209C185.013 73.2463 185.478 72.9746 185.988 72.8323C186.499 72.6899 187.037 72.6816 187.552 72.8082C188.04 72.9246 188.49 73.1667 188.856 73.5105C188.96 73.5667 189.492 74.2031 189.876 74.6389L191.101 76.0386L200.916 87.3268C214.083 102.26 227.352 117.096 240.724 131.834L245.803 137.395L246.86 138.557L244.42 138.589L236.95 138.791L208.665 139.708C207.345 126.174 203.267 113.054 196.684 101.157C196.546 100.962 195.621 101.056 194.567 101.363C193.514 101.67 192.668 102.116 192.687 102.356C193.767 115.907 197.612 129.094 203.984 141.103L186.007 153.291L176.404 159.827L171.607 163.111L171.012 163.517C170.92 163.562 170.865 163.64 170.784 163.664C170.639 163.733 170.481 163.772 170.32 163.777C170.14 163.777 169.961 163.738 169.797 163.664C169.633 163.59 169.487 163.481 169.368 163.345C168.678 162.8 167.898 162.38 167.062 162.104C166.756 162.061 166.445 162.124 166.179 162.281C165.913 162.439 165.709 162.682 165.599 162.971Z" fill="#D3D4DE" opacity="0.28"/>
</g>
<path d="M418.824 303.6C420.651 303.891 422.52 303.753 424.285 303.198C426.05 302.643 427.661 301.685 428.992 300.4C431.002 298.454 433.575 297.194 436.344 296.8C436.698 296.739 437.018 296.554 437.249 296.279C437.479 296.003 437.603 295.655 437.6 295.296C437.589 295.11 437.541 294.928 437.457 294.76C437.374 294.593 437.258 294.445 437.116 294.324C436.974 294.203 436.809 294.112 436.631 294.056C436.453 294 436.266 293.981 436.08 294H435.848C432.402 294.254 429.126 295.599 426.496 297.84C425.521 298.644 424.371 299.208 423.139 299.485C421.906 299.763 420.625 299.748 419.4 299.44C417 298.904 415 297.104 414.544 295.104C414.31 294.052 414.397 292.954 414.792 291.952C414.992 291.423 415.261 290.923 415.592 290.464C415.989 289.929 416.42 289.418 416.88 288.936C421.137 284.131 424.826 278.851 427.872 273.2L430.04 268.992L431.088 266.912C431.311 266.403 431.602 265.927 431.952 265.496C432.692 264.677 433.605 264.034 434.625 263.612C435.645 263.19 436.746 263 437.848 263.056C438.942 263.062 440.019 263.318 440.999 263.803C441.979 264.288 442.836 264.99 443.504 265.856C443.644 266.059 443.772 266.27 443.888 266.488L444.408 267.528L445.456 269.608L447.568 273.768C449.091 276.733 450.972 279.5 453.168 282.008C454.25 283.253 455.401 284.437 456.616 285.552L458.4 287.152C458.824 287.524 459.205 287.943 459.536 288.4C460.187 289.294 460.595 290.341 460.72 291.44C460.768 291.896 460.768 292.904 460.792 293.608C460.826 294.146 460.772 294.687 460.632 295.208C460.112 297.216 458.04 298.952 455.624 299.472C454.384 299.759 453.093 299.75 451.856 299.447C450.62 299.144 449.472 298.555 448.504 297.728C445.85 295.512 442.555 294.206 439.104 294C438.919 293.98 438.732 293.998 438.554 294.054C438.376 294.109 438.212 294.2 438.071 294.322C437.93 294.443 437.816 294.593 437.735 294.76C437.653 294.928 437.608 295.11 437.6 295.296C437.602 295.647 437.73 295.985 437.961 296.249C438.191 296.513 438.509 296.686 438.856 296.736H439.048C441.835 297.18 444.409 298.496 446.4 300.496C447.754 301.759 449.384 302.686 451.161 303.204C452.938 303.723 454.812 303.817 456.632 303.48C458.58 303.19 460.41 302.37 461.921 301.108C463.433 299.846 464.567 298.192 465.2 296.328C465.477 295.374 465.612 294.385 465.6 293.392C465.6 292.592 465.672 291.944 465.6 290.84C465.453 288.833 464.777 286.901 463.64 285.24C463.088 284.437 462.446 283.699 461.728 283.04C461.128 282.488 460.64 282.032 460.128 281.504C459.104 280.487 458.132 279.419 457.216 278.304C455.405 276.054 453.858 273.603 452.608 271L450.576 266.8L449.6 264.72L449.008 263.6C448.771 263.133 448.503 262.681 448.208 262.248C446.966 260.658 445.382 259.368 443.575 258.473C441.767 257.578 439.781 257.101 437.764 257.077C435.746 257.054 433.75 257.484 431.921 258.336C430.093 259.188 428.479 260.44 427.2 262C426.231 263.455 425.396 264.995 424.704 266.6L422.68 270.696C419.915 276.022 416.604 281.047 412.8 285.688C412.208 286.371 411.673 287.101 411.2 287.872C410.692 288.724 410.296 289.638 410.024 290.592C409.436 292.558 409.461 294.657 410.096 296.608C410.781 298.455 411.955 300.081 413.492 301.312C415.029 302.544 416.872 303.334 418.824 303.6Z" fill="#D3D4DE" opacity="0.28"/>
<path d="M412 266.456C412 265.712 411.84 265.096 411.664 265.064H411.616C410.928 264.902 410.285 264.589 409.732 264.15C409.178 263.71 408.729 263.153 408.416 262.52C407.808 261.2 408 260.4 408.16 258.2L408.256 256.808C408.292 256.536 408.354 256.268 408.44 256.008C408.61 255.502 408.882 255.036 409.24 254.64C409.587 254.255 410.01 253.946 410.484 253.736C410.957 253.525 411.47 253.416 411.988 253.416C412.506 253.416 413.019 253.525 413.492 253.736C413.966 253.946 414.389 254.255 414.736 254.64C415.092 255.04 415.364 255.508 415.536 256.016C415.619 256.277 415.678 256.544 415.712 256.816L415.8 258.232C415.96 260.448 416.144 261.2 415.504 262.496C415.185 263.12 414.734 263.668 414.181 264.099C413.628 264.53 412.987 264.835 412.304 264.992C412.128 265.048 411.976 265.68 411.968 266.424C411.96 267.168 412.184 267.784 412.488 267.816H412.568C413.793 267.848 415.008 267.594 416.119 267.077C417.23 266.559 418.205 265.791 418.968 264.832C419.778 263.823 420.342 262.64 420.616 261.376C420.791 260.317 420.903 259.248 420.952 258.176L421.032 256.712C421.053 256.033 420.994 255.353 420.856 254.688C420.362 252.499 419.074 250.572 417.241 249.277C415.408 247.983 413.161 247.413 410.933 247.679C408.705 247.944 406.655 249.026 405.178 250.715C403.701 252.404 402.902 254.58 402.936 256.824L403.032 258.264C403.073 259.337 403.188 260.406 403.376 261.464C403.665 262.723 404.243 263.898 405.064 264.896C405.835 265.839 406.814 266.591 407.925 267.092C409.035 267.593 410.247 267.83 411.464 267.784C411.776 267.8 412 267.2 412 266.456Z" fill="#D3D4DE" opacity="0.28"/>
<path d="M430.664 245.728C431.435 246.671 432.414 247.423 433.525 247.924C434.635 248.425 435.847 248.662 437.064 248.616C437.36 248.616 437.584 248 437.576 247.256C437.568 246.512 437.416 245.896 437.24 245.864H437.192C436.504 245.702 435.861 245.389 435.308 244.95C434.754 244.51 434.305 243.953 433.992 243.32C433.408 242 433.6 241.2 433.76 239L433.856 237.608C433.892 237.336 433.954 237.068 434.04 236.808C434.21 236.302 434.482 235.836 434.84 235.44C435.187 235.055 435.61 234.746 436.084 234.535C436.557 234.325 437.07 234.216 437.588 234.216C438.106 234.216 438.619 234.325 439.092 234.535C439.566 234.746 439.989 235.055 440.336 235.44C440.692 235.84 440.964 236.308 441.136 236.816C441.219 237.077 441.278 237.344 441.312 237.616L441.4 239.032C441.56 241.248 441.744 242 441.104 243.296C440.785 243.92 440.334 244.468 439.781 244.899C439.228 245.33 438.587 245.635 437.904 245.792C437.728 245.848 437.576 246.48 437.568 247.224C437.56 247.968 437.784 248.584 438.088 248.616H438.168C439.393 248.648 440.608 248.394 441.719 247.877C442.83 247.359 443.805 246.59 444.568 245.632C445.378 244.623 445.942 243.44 446.216 242.176C446.391 241.117 446.503 240.048 446.552 238.976L446.632 237.512C446.653 236.833 446.594 236.153 446.456 235.488C445.996 233.265 444.72 231.295 442.879 229.967C441.038 228.639 438.766 228.049 436.512 228.314C434.257 228.58 432.184 229.681 430.702 231.4C429.219 233.119 428.435 235.331 428.504 237.6L428.6 239.04C428.641 240.113 428.756 241.182 428.944 242.24C429.234 243.522 429.823 244.717 430.664 245.728Z" fill="#D3D4DE" opacity="0.28"/>
<path d="M471.848 258.216C472.023 257.157 472.135 256.088 472.184 255.016L472.264 253.552C472.285 252.873 472.226 252.193 472.088 251.528C471.629 249.305 470.352 247.335 468.511 246.007C466.67 244.679 464.398 244.089 462.144 244.355C459.889 244.62 457.816 245.721 456.334 247.44C454.851 249.159 454.067 251.371 454.136 253.64L454.232 255.08C454.273 256.153 454.388 257.222 454.576 258.28C454.865 259.539 455.443 260.714 456.264 261.712C457.035 262.655 458.014 263.407 459.125 263.908C460.235 264.409 461.447 264.646 462.664 264.6C462.96 264.6 463.184 263.984 463.176 263.24C463.168 262.496 463.016 261.88 462.84 261.848H462.792C462.104 261.686 461.461 261.373 460.908 260.934C460.354 260.494 459.905 259.937 459.592 259.304C459.008 258 459.2 257.2 459.36 255L459.456 253.608C459.492 253.336 459.554 253.068 459.64 252.808C459.81 252.302 460.082 251.836 460.44 251.44C460.787 251.055 461.21 250.746 461.684 250.536C462.157 250.325 462.67 250.216 463.188 250.216C463.706 250.216 464.219 250.325 464.692 250.536C465.166 250.746 465.589 251.055 465.936 251.44C466.292 251.84 466.564 252.308 466.736 252.816C466.819 253.077 466.878 253.344 466.912 253.616L467 255.032C467.16 257.248 467.344 258 466.704 259.296C466.385 259.92 465.934 260.468 465.381 260.899C464.828 261.33 464.187 261.635 463.504 261.792C463.328 261.848 463.176 262.48 463.168 263.224C463.16 263.968 463.384 264.584 463.688 264.616H463.768C464.993 264.648 466.208 264.395 467.319 263.877C468.43 263.359 469.405 262.591 470.168 261.632C470.984 260.638 471.559 259.469 471.848 258.216Z" fill="#D3D4DE" opacity="0.28"/>
<path d="M387.42 382.63C390.94 383.6 394.548 384.219 398.19 384.48C398.432 388.135 399.038 391.756 400 395.29C400.555 395.537 401.166 395.63 401.77 395.56C402.374 395.63 402.985 395.537 403.54 395.29C404.498 391.772 405.104 388.168 405.35 384.53C409.004 384.28 412.625 383.67 416.16 382.71C416.406 382.154 416.499 381.543 416.43 380.94C416.502 380.336 416.408 379.725 416.16 379.17C412.631 378.192 409.013 377.565 405.36 377.3C405.101 373.647 404.478 370.029 403.5 366.5C403.5 366.35 402.71 366.23 401.78 366.23C400.85 366.23 400.09 366.35 400.06 366.5C399.079 370.035 398.455 373.66 398.2 377.32C394.541 377.576 390.916 378.195 387.38 379.17C387.23 379.17 387.11 379.97 387.11 380.9C387.11 381.83 387.23 382.59 387.38 382.62L387.42 382.63Z" fill="#D3D4DE" opacity="0.28"/>
<path d="M467.23 397C468.65 395.616 469.955 394.117 471.13 392.52C472.308 390.639 472.922 388.46 472.899 386.241C472.876 384.022 472.217 381.856 471 380C470.16 378.77 468.77 378.56 468.15 379.24C467.859 379.61 467.688 380.061 467.661 380.531C467.634 381.002 467.753 381.469 468 381.87L468.13 382.11C468.819 383.408 469.123 384.875 469.008 386.34C468.893 387.804 468.363 389.206 467.48 390.38C466.73 391.38 465.08 392.73 463.84 393.96L460.7 396.9C456.76 390.06 451.104 384.365 444.29 380.38L448.22 376.27C449.74 374.66 450.66 373.54 452.1 372.93C453.529 372.264 455.134 372.071 456.68 372.38C458.31 372.712 459.795 373.544 460.93 374.76L465.36 378.92C465.69 379.319 466.163 379.574 466.677 379.632C467.192 379.69 467.709 379.546 468.12 379.23C468.432 378.819 468.572 378.303 468.513 377.791C468.453 377.278 468.198 376.809 467.8 376.48L467.57 376.23L463.43 371.81C461.787 369.968 459.606 368.689 457.196 368.154C454.786 367.619 452.268 367.856 450 368.83C448.846 369.329 447.777 370.004 446.83 370.83L444.55 373L427 389.69C415.393 400.87 403.85 412.133 392.37 423.48C391.83 424.022 391.479 424.723 391.37 425.48L387.31 449.48C387.244 449.894 387.244 450.316 387.31 450.73C387.481 451.693 388.026 452.549 388.826 453.111C389.626 453.673 390.616 453.896 391.58 453.73L415.58 449.62C416.306 449.497 416.975 449.147 417.49 448.62C427.83 438.127 438.073 427.587 448.22 417L463.44 401L467.23 397ZM398.31 428.12C401.529 434.117 406.21 439.205 411.92 442.91L395.44 445.58L398.31 428.12ZM443.92 412.9C434.64 421.8 425.417 430.76 416.25 439.78C412.473 433.664 407.138 428.663 400.79 425.29C411.07 414.87 421.287 404.387 431.44 393.84L441.32 383.5C445.286 390.242 450.929 395.843 457.7 399.76L443.92 412.9Z" fill="#D3D4DE" opacity="0.28"/>
<path d="M39.2761 63.2734C39.2068 63.7726 39.1743 64.2761 39.1789 64.7801V65.8817V68.101L39.43 76.9787L39.9241 94.6934L40.24 103.547C40.2882 105.407 40.9757 107.194 42.1868 108.608C43.398 110.021 45.0588 110.974 46.8901 111.306C47.0823 111.348 47.2814 111.347 47.4731 111.303C47.6649 111.259 47.8445 111.173 47.9993 111.052C48.154 110.93 48.28 110.776 48.3683 110.6C48.4566 110.425 48.505 110.231 48.5101 110.035C48.5089 109.704 48.4066 109.382 48.2169 109.111C48.0272 108.84 47.7593 108.634 47.449 108.52L47.2951 108.471C46.2158 108.157 45.2789 107.479 44.6438 106.551C44.0087 105.623 43.7148 104.505 43.8121 103.385L44.128 94.5557L44.614 76.8977L44.7841 68.0201V65.8168V64.7071C44.7941 64.4925 44.8184 64.2787 44.857 64.0672C45.0058 63.2544 45.4324 62.5186 46.0639 61.9855C46.6853 61.4682 47.4666 61.182 48.2752 61.1755H52.5601H61.3972C61.5903 61.1763 61.783 61.1573 61.9723 61.1188C62.3593 61.0461 62.728 60.8973 63.0571 60.6813C63.3863 60.4652 63.6694 60.186 63.89 59.8599C64.1107 59.5338 64.2646 59.1672 64.3428 58.7813C64.421 58.3954 64.4219 57.9978 64.3456 57.6115C63.8191 54.8737 62.4259 52.5976 61.6969 51.0748C61.1007 49.7132 60.9698 48.193 61.3243 46.7494C61.6988 45.2882 62.5413 43.9897 63.7231 43.0522C64.9049 42.1147 66.361 41.5897 67.8691 41.5573C69.4216 41.533 70.9394 42.018 72.1901 42.9381C73.4409 43.8582 74.3557 45.1628 74.7946 46.6522C75.2473 48.184 75.176 49.823 74.5921 51.3097C73.8874 53.0674 72.6967 55.1087 72.1621 57.7169V57.8302C72.1457 57.9891 72.1457 58.1493 72.1621 58.3081C72.1853 58.8797 72.4331 59.419 72.8518 59.8088C73.2704 60.1986 73.8259 60.4074 74.3977 60.3899L85.3003 60.0172C86.1103 60.0172 87.2929 59.92 87.8437 59.9363C88.518 59.9727 89.1773 60.1492 89.7796 60.4546C90.4005 60.7737 90.9481 61.2186 91.3874 61.7612C91.8268 62.3037 92.1481 62.9319 92.3311 63.6055C92.4412 63.9155 92.6459 64.183 92.9162 64.3705C93.1865 64.558 93.5088 64.6559 93.8377 64.6504C94.0329 64.6454 94.2246 64.5965 94.3984 64.5074C94.5722 64.4184 94.7238 64.2914 94.842 64.1359C94.9602 63.9804 95.0419 63.8003 95.0812 63.609C95.1205 63.4176 95.1163 63.2199 95.0689 63.0305L95.0122 62.7793C94.782 61.6977 94.3307 60.6753 93.6867 59.7763C93.0428 58.8772 92.22 58.1209 91.27 57.5548C90.2752 56.9804 89.1719 56.619 88.03 56.4937C86.8555 56.3965 86.1589 56.4046 85.195 56.3561L77.6053 56.0968C78.0346 55.2302 78.5368 54.3067 79.039 53.27C80.1731 50.8093 80.4415 48.0373 79.8004 45.4048C79.1445 42.7396 77.6228 40.3672 75.4739 38.6595C73.3251 36.9519 70.6703 36.0054 67.9258 35.9683C65.832 35.9444 63.7655 36.4446 61.9144 37.4232C60.0633 38.4018 58.4863 39.8279 57.3271 41.5716C56.1678 43.3154 55.4631 45.3213 55.277 47.4069C55.091 49.4925 55.4295 51.5916 56.2618 53.5129L57.0718 55.2139H52.5601L47.9836 55.2625C45.8245 55.3747 43.7715 56.2337 42.1759 57.6925C40.586 59.1562 39.5599 61.1311 39.2761 63.2734Z" fill="#D3D4DE" opacity="0.28"/>
<path d="M49.96 111.436H50.1949L61.4215 111.849C61.5375 111.857 61.6538 111.857 61.7698 111.849C61.9982 111.812 62.2169 111.73 62.4135 111.608C62.6101 111.485 62.7806 111.326 62.9153 111.138C63.05 110.95 63.1462 110.737 63.1985 110.511C63.2507 110.286 63.2579 110.052 63.2197 109.824V109.711C62.8147 107.216 61.5997 105.029 60.8545 103.352C60.2536 101.799 60.1796 100.091 60.6439 98.4922C61.1068 96.9301 62.0721 95.5643 63.3901 94.6066C64.7081 93.6488 66.3052 93.1526 67.9339 93.1948C69.4955 93.2368 71.0001 93.7906 72.2163 94.7711C73.4324 95.7517 74.2928 97.1046 74.665 98.6218C75.0149 100.087 74.8725 101.627 74.26 103.004C73.4986 104.689 72.2107 106.697 71.5708 109.484C71.5256 109.689 71.5012 109.898 71.4979 110.108C71.4947 110.485 71.566 110.859 71.7076 111.209C71.8493 111.558 72.0585 111.876 72.3234 112.145C72.5883 112.414 72.9035 112.627 73.2512 112.774C73.5988 112.921 73.9719 112.997 74.3491 112.999H74.4301L83.4535 113.056H87.382H88.192C90.4193 112.867 92.5073 111.894 94.0841 110.31C95.6609 108.726 96.6242 106.633 96.8023 104.405V103.595V101.886V99.6262V94.8391C97.3612 95.1064 97.9525 95.3818 98.6005 95.6491C100.494 96.4523 102.558 96.7713 104.605 96.5772C106.653 96.3831 108.62 95.6821 110.329 94.5375C112.038 93.3928 113.435 91.8406 114.394 90.0209C115.353 88.2012 115.843 86.1714 115.821 84.1147C115.779 81.4309 114.846 78.8372 113.168 76.7418C111.491 74.6465 109.164 73.1682 106.555 72.5398C103.987 71.9422 101.294 72.2276 98.9083 73.3498C97.6528 74.0059 96.5998 74.5972 95.6035 75.067L95.32 66.1813C95.32 65.801 95.169 65.4364 94.9001 65.1675C94.6312 64.8986 94.2666 64.7476 93.8863 64.7476C93.5061 64.7476 93.1414 64.8986 92.8725 65.1675C92.6037 65.4364 92.4526 65.801 92.4526 66.1813V66.4L92.0395 77.6266C92.0317 77.7452 92.0317 77.8643 92.0395 77.983C92.1171 78.4517 92.377 78.8707 92.7625 79.1485C93.148 79.4262 93.6277 79.5401 94.0969 79.4653H94.2103C96.7213 79.0522 98.9083 77.8453 100.585 77.0839C102.139 76.4853 103.845 76.4113 105.445 76.8733C106.995 77.3363 108.35 78.2958 109.301 79.6042C110.253 80.9126 110.748 82.4974 110.71 84.1147C110.671 85.6728 110.12 87.1747 109.142 88.3884C108.164 89.6021 106.813 90.46 105.299 90.8296C103.824 91.195 102.269 91.0523 100.885 90.4246C99.1999 89.6632 97.183 88.3753 94.4047 87.7354C94.197 87.6904 93.9854 87.666 93.7729 87.6625C93.0088 87.6603 92.2748 87.9607 91.7315 88.498C91.1881 89.0352 90.8795 89.7657 90.8731 90.5299V90.6028L90.8569 99.61V103.862C90.7842 104.674 90.4289 105.434 89.853 106.009C89.2771 106.585 88.5172 106.941 87.706 107.013H83.4616H78.6583C78.9256 106.446 79.201 105.855 79.4683 105.207C80.2515 103.317 80.5542 101.263 80.3493 99.2279C80.1443 97.1927 79.4381 95.24 78.2939 93.5444C77.1496 91.8489 75.6029 90.4634 73.7922 89.5119C71.9815 88.5603 69.9631 88.0724 67.9177 88.0918C65.2392 88.1342 62.6507 89.066 60.5597 90.7406C58.4687 92.4152 56.9938 94.7374 56.3671 97.342C55.774 99.9016 56.0593 102.586 57.1771 104.964C57.8413 106.244 58.4407 107.305 58.9186 108.317L50.0086 108.65C49.6391 108.65 49.2848 108.796 49.0235 109.058C48.7622 109.319 48.6154 109.673 48.6154 110.043C48.6154 110.412 48.7622 110.767 49.0235 111.028C49.2848 111.289 49.6391 111.436 50.0086 111.436H49.96Z" fill="#D3D4DE" opacity="0.28"/>
<path d="M61.8923 195.047H61.0899C60.6267 195.067 60.1654 195.118 59.7093 195.201C57.8311 195.57 56.1433 196.59 54.942 198.08C53.7446 199.505 53.0849 201.305 53.0777 203.166C53.0777 204.523 53.2074 205.384 53.2664 206.529L53.7385 212.972C53.7385 213.101 53.8093 213.208 53.8211 213.326H52.2044H48.8532H47.1776C46.2027 213.319 45.2322 213.458 44.2985 213.739C42.7727 214.211 41.4044 215.09 40.3401 216.282C39.2758 217.473 38.5557 218.931 38.2568 220.5C38.0987 221.336 38.0472 222.188 38.1035 223.037L38.3512 229.739L38.4221 231.415L38.5046 232.595C38.5591 233.088 38.6619 233.574 38.8115 234.046C39.3833 235.945 40.6189 237.574 42.2924 238.637C43.1137 239.152 44.021 239.516 44.9711 239.71C45.7826 239.872 46.6132 239.916 47.4373 239.84L50.7885 239.64L52.1573 239.533C52.0635 239.977 52.0044 240.426 51.9803 240.879V242.802L52.0864 249.882V250.897C52.0864 250.979 52.0864 251.074 52.0864 251.168H50.9064L47.3664 251.097C46.4437 251.061 45.5201 251.14 44.617 251.333C42.9738 251.718 41.4718 252.558 40.2826 253.755C39.0933 254.953 38.2646 256.461 37.891 258.107C37.7682 258.653 37.697 259.21 37.6786 259.77V260.809V262.555V269.529C37.6941 271.78 38.5497 273.943 40.0777 275.596C41.6058 277.248 43.6961 278.27 45.9387 278.462H46.7529H48.0744H49.8209H52.0629C52.0629 278.603 52.0629 278.745 52.0629 278.898V279.63L51.9449 284.739V287.3V288.61C51.9616 289.431 52.0805 290.248 52.2989 291.04C52.7606 292.627 53.6463 294.058 54.8605 295.178C56.0748 296.299 57.5716 297.067 59.1901 297.401C59.9023 297.529 60.6259 297.584 61.3495 297.566H62.6238H65.1845C68.5947 297.471 71.9931 297.33 75.4033 297.141C82.2237 296.755 89.0401 296.181 95.8527 295.418C95.9335 295.392 96.0079 295.349 96.0709 295.292C96.134 295.235 96.1843 295.166 96.2185 295.088C96.4875 295.089 96.7539 295.035 97.0014 294.929C97.2489 294.824 97.4723 294.669 97.6581 294.474C98.0208 294.167 98.2626 293.741 98.3404 293.272C98.4182 292.803 98.3269 292.321 98.0829 291.914L97.9413 291.725C93.81 286.471 91.8581 279.829 92.4897 273.175C93.0881 266.746 96.1237 260.788 100.974 256.525C105.682 252.621 111.68 250.618 117.789 250.909C123.899 251.199 129.679 253.762 133.996 258.095C138.312 262.429 140.854 268.218 141.122 274.329C141.389 280.439 139.363 286.429 135.442 291.123C131.15 295.916 125.191 298.892 118.78 299.442C112.113 300.015 105.481 298.004 100.254 293.825C99.8331 293.593 99.345 293.513 98.8721 293.599C98.3992 293.685 97.9704 293.932 97.6581 294.297C97.4696 294.457 97.315 294.652 97.2033 294.872C97.0915 295.093 97.0249 295.333 97.0073 295.579C96.9897 295.825 97.0215 296.073 97.1008 296.306C97.1802 296.54 97.3054 296.756 97.4692 296.94L97.6581 297.129C103.454 302.706 111.222 305.761 119.264 305.625C127.523 305.49 135.395 302.097 141.165 296.185C147.051 290.151 150.305 282.029 150.215 273.6C150.137 265.119 146.712 257.012 140.685 251.045C134.658 245.078 126.518 241.733 118.037 241.74C115.523 241.745 113.019 242.054 110.579 242.66C110.579 242.106 110.673 241.657 110.685 240.938C110.695 240.026 110.531 239.121 110.201 238.271C109.51 236.509 108.172 235.078 106.461 234.271C105.593 233.865 104.656 233.625 103.7 233.563L101.847 233.48L96.3601 233.173C96.5316 232.582 96.6229 231.971 96.6315 231.356L97.1035 224.665C97.2591 223.317 97.2591 221.955 97.1035 220.606C97.1035 220.488 97.0209 220.37 96.9973 220.24L103.287 220.736C105.114 220.826 106.917 220.29 108.4 219.218C109.882 218.145 110.954 216.6 111.44 214.836C111.708 213.503 111.843 212.148 111.842 210.789L111.995 207.567L112.125 204.346V203.543C112.133 203.078 112.11 202.613 112.054 202.151C111.867 200.668 111.302 199.257 110.414 198.055C109.525 196.852 108.343 195.898 106.98 195.283C106.045 194.872 105.048 194.62 104.03 194.54H102.177L89.2801 194.375C80.6818 194.375 72.0875 194.571 63.4971 194.965L61.8923 195.047ZM46.8001 270.06C46.5759 269.918 46.4579 269.907 46.4932 269.411V262.425C46.4932 259.133 46.4932 260.242 46.6349 259.818L46.741 259.747H46.8237H47.6143L51.1543 259.688L60.0278 259.405C60.2638 259.405 60.5117 259.475 60.7477 259.487H61.7743L63.5443 259.428L67.0843 259.298C74.8605 258.98 82.6249 258.508 90.4011 257.93C87.9507 262.261 86.5749 267.117 86.389 272.09C80.8431 271.653 75.2971 271.299 69.7511 270.992C67.6035 270.827 65.444 270.65 63.2964 270.532C62.3407 270.532 61.8215 270.414 60.4999 270.414C60.3465 270.414 60.1812 270.485 60.0278 270.497L46.8001 270.06ZM75.2853 289.329C71.8869 289.141 68.4806 288.999 65.0665 288.905H62.5058H61.2315C60.8421 288.905 61.0545 288.905 60.9482 288.905C60.89 288.882 60.8381 288.845 60.797 288.798C60.756 288.75 60.7269 288.694 60.7123 288.633L60.5471 279.535C60.5471 278.934 60.5471 279.099 60.5471 279.004C60.5356 278.958 60.5356 278.909 60.5471 278.863C60.568 278.741 60.6209 278.627 60.7005 278.532C60.7859 278.426 60.9009 278.348 61.0308 278.308L63.4617 278.167C65.5857 278.049 67.7215 277.872 69.8455 277.718C75.4308 277.411 81.0122 277.018 86.5897 276.538C87.1645 281.632 89.0063 286.5 91.9468 290.698C86.3773 290.12 80.8312 289.648 75.2853 289.329ZM102.012 239.557L103.629 239.463C103.855 239.422 104.087 239.422 104.313 239.463C104.807 239.612 105.228 239.94 105.493 240.383C105.638 240.626 105.734 240.894 105.776 241.174L105.918 242.932L106.001 244.112C102.099 245.678 98.5583 248.023 95.5931 251.003C94.9008 251.695 94.24 252.415 93.6106 253.162C84.7213 252.47 75.8281 251.939 66.9309 251.569L63.3909 251.44C62.5506 251.46 61.7101 251.413 60.8775 251.298C60.7355 251.227 60.6258 251.105 60.5707 250.956C60.5594 250.893 60.5594 250.829 60.5707 250.767V249.752L60.6769 242.672V241.197C60.67 241.158 60.67 241.118 60.6769 241.079C60.747 240.99 60.8482 240.931 60.9601 240.914L73.5979 240.737L87.8287 240.289L102.012 239.557ZM87.6281 232.725L73.3973 232.3L66.3173 232.182H62.7773H60.8657C59.7178 232.194 58.5834 232.431 57.5263 232.878C56.9279 233.129 56.3615 233.45 55.8389 233.834L50.635 233.445L47.2838 233.244C46.3635 233.185 46.4933 233.032 46.1747 232.819C45.7145 232.158 45.8797 232.583 45.9741 229.598L46.2219 222.86C46.2219 222.081 46.2219 222.353 46.3045 222.199C46.3328 222.137 46.3729 222.081 46.4225 222.034C46.5116 221.948 46.6291 221.898 46.7529 221.892L59.0485 222.01C67.985 222.01 76.9176 221.81 85.8463 221.409L89.1975 221.255C89.5182 221.17 89.8591 221.207 90.1537 221.36C90.4483 221.513 90.6753 221.77 90.7905 222.081L90.8613 222.341V223.143L90.9675 224.819L91.4395 231.509C91.5342 231.979 91.4932 232.466 91.3215 232.914L87.6281 232.725ZM89.4335 203.13L102.319 202.989H103.57H103.747C103.89 203.014 104.02 203.089 104.113 203.201C104.301 202.635 104.313 205.844 104.431 207.78L104.703 213.267C104.596 213.833 104.384 214.447 103.204 214.565L93.5045 215.32C92.1633 214.49 90.6212 214.041 89.0441 214.022L85.7401 213.845C76.8114 213.459 67.8788 213.263 58.9423 213.255C58.9305 213.094 58.9305 212.932 58.9423 212.771L59.4143 206.328C59.4969 205.372 59.5558 203.968 59.6384 203.355C59.7185 203.05 59.9074 202.786 60.1695 202.611C60.3963 202.442 60.6791 202.366 60.9601 202.399L63.7095 202.54C72.2763 202.926 80.8509 203.122 89.4335 203.13Z" fill="#D3D4DE" opacity="0.28"/>
<path d="M328.474 92.5759C329.228 92.3932 329.879 91.9193 330.284 91.2578C330.69 90.5963 330.817 89.8012 330.638 89.0463L324.393 63.2764C324.259 62.7523 323.985 62.2749 323.599 61.896C312.814 50.9762 301.946 40.1441 290.994 29.4L282.772 21.3578L278.645 17.3085L278.39 17.0575C277.701 16.7631 279.905 17.6874 276.843 16.3951L276.674 16.3939L276.473 16.3925L275.669 16.4429C275.13 16.4579 274.592 16.5105 274.06 16.6001C273.014 16.7634 271.982 17.0114 270.976 17.3415C266.939 18.5501 263.361 20.9463 260.706 24.2179C258.051 27.4895 256.443 31.4849 256.092 35.6835C256.083 36.8491 256.647 37.7536 257.395 37.7429C256.869 38.2696 257.03 39.3079 257.764 40.0849L257.964 40.3034C271.891 55.3297 285.954 70.2285 300.151 84.9995C300.481 85.3422 300.899 85.5872 301.36 85.7076L301.408 85.708L327.035 92.5655C327.506 92.6894 328.001 92.6929 328.474 92.5759ZM272.258 21.2417C273.088 21.0375 273.933 20.9011 274.785 20.8339C275.162 20.7936 275.54 20.7775 275.919 20.7858L279.629 24.7115L287.527 33.0246C296.937 42.8894 306.4 52.6904 315.918 62.4274C312.634 62.854 309.534 64.1873 306.967 66.2777C294.512 51.0841 280.643 37.108 265.546 24.5374C267.51 22.9527 269.803 21.8267 272.258 21.2417ZM259.732 38.1617C259.523 37.9481 259.274 37.7792 258.998 37.6652C258.723 37.5513 258.427 37.4947 258.128 37.499C258.361 37.3199 258.554 37.0942 258.694 36.8364C258.834 36.5785 258.919 36.2941 258.943 36.0016C258.936 35.9133 258.937 35.8245 258.945 35.7363C259.469 32.2788 261.018 29.0581 263.393 26.4914C275.772 41.7976 289.576 55.8944 304.618 68.592C302.398 71.2068 300.98 74.4065 300.532 77.8074C287.059 64.4778 273.459 51.2626 259.732 38.1617ZM304.193 80.8163C305.374 77.3437 307.342 74.1911 309.943 71.6049C312.501 69.0948 315.592 67.1936 318.987 66.043L323.789 85.6767L304.193 80.8163Z" fill="#D3D4DE" opacity="0.28"/>
<defs>
<clipPath id="clip0">
<rect width="100" height="96" fill="white" transform="translate(291.882 379) rotate(45)"/>
</clipPath>
<clipPath id="clip1">
<rect width="100" height="125" fill="white" transform="translate(56.8695 356) rotate(8.68233)"/>
</clipPath>
<clipPath id="clip2">
<rect width="81.8182" height="81" fill="white" transform="translate(307.091 144)"/>
</clipPath>
<clipPath id="clip3">
<rect width="118.49" height="116.12" fill="white" transform="translate(123.476 153.474) rotate(-61.6944)"/>
</clipPath>
</defs>
</svg>
