<svg viewBox="0 0 32 32" fill="none" xmlns="http://www.w3.org/2000/svg">
<path d="M16.1714 2.57886H3.83264C3.78374 2.57886 3.74409 2.6185 3.74409 2.6674V14.899C3.74409 14.9479 3.78374 14.9875 3.83264 14.9875H16.1714C16.2203 14.9875 16.2599 14.9479 16.2599 14.899V2.6674C16.2599 2.6185 16.2203 2.57886 16.1714 2.57886Z" fill="#E1207B"/>
<path d="M12.4273 15.9504H0.0885407C0.039641 15.9504 0 15.9901 0 16.039V28.2706C0 28.3195 0.039641 28.3591 0.0885407 28.3591H12.4273C12.4762 28.3591 12.5158 28.3195 12.5158 28.2706V16.039C12.5158 15.9901 12.4762 15.9504 12.4273 15.9504Z" fill="#3FB8C0"/>
<path d="M29.9836 19.3489L21.2588 10.6241C21.2242 10.5896 21.1682 10.5896 21.1336 10.6241L12.4846 19.2732C12.45 19.3078 12.45 19.3638 12.4846 19.3984L21.2094 28.1232C21.2439 28.1578 21.3 28.1578 21.3346 28.1232L29.9836 19.4741C30.0182 19.4396 30.0182 19.3835 29.9836 19.3489Z" fill="#293C89"/>
</svg>
